<svg xmlns="http://www.w3.org/2000/svg" width="1em" height="1em" fill="none" viewBox="0 0 48 48"><path stroke="currentColor" stroke-linejoin="round" stroke-width="4" d="M39 6H9a3 3 0 0 0-3 3v30a3 3 0 0 0 3 3h30a3 3 0 0 0 3-3V9a3 3 0 0 0-3-3Z"></path><path stroke="currentColor" stroke-linecap="round" stroke-linejoin="round" stroke-width="4" d="M24 28.625v-4a6 6 0 1 0-6-6"></path><path fill="currentColor" fill-rule="evenodd" d="M24 37.625a2.5 2.5 0 1 0 0-5 2.5 2.5 0 0 0 0 5Z" clip-rule="evenodd"></path></svg>