<svg t="1737436614894" viewBox="0 0 1231 1024" version="1.1" xmlns="http://www.w3.org/2000/svg" p-id="16960" width="1em" height="1em"><path d="M192 96c-53.019978 0-96 42.980022-96 96s42.980022 96 96 96 96-42.980022 96-96-42.980022-96-96-96zM0 192C0 85.961443 85.961443 0 192 0S384 85.961443 384 192 298.038557 384 192 384 0 298.038557 0 192z m463.104-128c0-26.50929 21.490011-47.999301 47.999301-47.999301h672c26.50929 0 47.999301 21.490011 47.9993 47.999301s-21.490011 47.999301-47.9993 47.999301H511.104699c-26.50929 0-47.999301-21.490011-47.9993-47.999301z m47.999301 209.72835c-26.50929 0-47.999301 21.490011-47.999301 47.9993s21.490011 47.999301 47.999301 47.999301h544c26.50929 0 47.999301-21.490011 47.9993-47.999301s-21.490011-47.999301-47.9993-47.9993H511.104699z m0 640c-26.50929 0-47.999301 21.490011-47.999301 47.9993s21.490011 47.999301 47.999301 47.999301h544c26.50929 0 47.999301-21.490011 47.9993-47.999301s-21.490011-47.999301-47.9993-47.9993H511.104699z m0-257.727651c-26.50929 0-47.999301 21.490011-47.999301 47.999301s21.490011 47.999301 47.999301 47.999301h672c26.50929 0 47.999301-21.490011 47.9993-47.999301s-21.490011-47.999301-47.9993-47.999301H511.104699zM95.998601 832c0-53.019978 42.980022-96 96-96s96 42.980022 96 96-42.980022 96-96 96-96-42.980022-96-96z m96-192C85.961443 640 0 725.961443 0 832S85.961443 1024 192 1024 384 938.038557 384 832 298.038557 640 192 640z" p-id="16961"></path></svg>